<svg width="26" height="32" viewBox="0 0 26 32" fill="none" xmlns="http://www.w3.org/2000/svg">
<path d="M25.172 10.9076C24.128 11.548 23.2632 12.4433 22.6586 13.5098C22.054 14.5762 21.7293 15.7789 21.715 17.0053C21.7191 18.3855 22.1273 19.7343 22.8889 20.8844C23.6506 22.0346 24.7323 22.9357 26 23.476C25.5002 25.0917 24.7604 26.6228 23.8057 28.0179C22.4395 29.9883 21.0111 31.9584 18.8376 31.9584C16.6641 31.9584 16.1051 30.6933 13.6003 30.6933C11.1576 30.6933 10.2882 32 8.30088 32C6.3136 32 4.92681 30.1748 3.33278 27.935C1.22718 24.7972 0.0699703 21.1174 0 17.337C0 11.1151 4.03669 7.81756 8.01105 7.81756C10.1226 7.81756 11.8822 9.20697 13.207 9.20697C14.4698 9.20697 16.4364 7.73443 18.8376 7.73443C20.0722 7.70252 21.2956 7.97524 22.4003 8.5286C23.5049 9.08195 24.4567 9.89895 25.172 10.9076ZM17.6991 5.10059C18.7576 3.85308 19.3568 2.27946 19.3966 0.642594C19.3984 0.426807 19.3775 0.211429 19.3344 0C17.5162 0.177946 15.8349 1.04617 14.6353 2.4266C13.5666 3.6244 12.9449 5.156 12.8757 6.7611C12.8765 6.9563 12.8974 7.1509 12.9379 7.34184C13.0812 7.36899 13.2267 7.3829 13.3726 7.38341C14.2106 7.31661 15.0262 7.07979 15.77 6.68736C16.5137 6.29492 17.1701 5.75506 17.6991 5.10059Z" fill="black" fill-opacity="0.8"/>
</svg>
