<svg width="8" height="8" viewBox="0 0 8 8" fill="none" xmlns="http://www.w3.org/2000/svg">
<path d="M8 5.94625C8 6.12913 7.93951 6.28112 7.81852 6.40222C7.69753 6.52332 7.55309 6.58387 7.38519 6.58387C7.21728 6.58387 7.07531 6.52209 6.95926 6.39852C6.84321 6.27495 6.78518 6.12913 6.78518 5.96108V4.30769L6.88889 1.86098L6.00741 2.86932L1.06667 7.81464C0.933333 7.93821 0.787654 8 0.62963 8C0.461728 8 0.314815 7.93574 0.188889 7.80723C0.062963 7.67871 0 7.5329 0 7.36979C0 7.20667 0.0641975 7.06086 0.192593 6.93234L5.13333 1.98702L6.13333 1.11955L3.66667 1.20853H2.03704C1.86914 1.20853 1.72469 1.15045 1.6037 1.03429C1.48272 0.918134 1.42222 0.778499 1.42222 0.615385C1.42222 0.447328 1.48148 0.30275 1.6 0.18165C1.71852 0.0605497 1.86914 0 2.05185 0H7.34074C7.54321 0 7.7037 0.0605497 7.82222 0.18165C7.94074 0.30275 8 0.459685 8 0.652456V5.94625Z" fill="#1D1D1F"/>
</svg>
